<?xml version="1.0" encoding="utf-8"?>
<!-- Generator: Adobe Illustrator 21.1.0, SVG Export Plug-In . SVG Version: 6.00 Build 0)  -->
<svg version="1.1" id="Layer_1" xmlns="http://www.w3.org/2000/svg" xmlns:xlink="http://www.w3.org/1999/xlink" x="0px" y="0px"
	 viewBox="0 0 210 48" style="enable-background:new 0 0 210 48;" xml:space="preserve">
<style type="text/css">
	.st0{fill:#0681C2;}
	.st1{fill:#074F6E;}
	.st2{fill:#80B841;}
	.st3{fill:#FFFFFF;}
	.st4{font-family:'OpenSans-Semibold';}
	.st5{font-size:13.8135px;}
</style>
<g>
	<g>
		<g>
			<g>
				<g>
					<rect x="127.5" y="28.2" class="st0" width="81.4" height="18.9"/>
				</g>
				<g>
					<polygon class="st1" points="187.8,22.6 187.8,28.2 208.8,28.2 					"/>
				</g>
			</g>
		</g>
	</g>
	<g>
		<g>
			<g>
				<path class="st2" d="M180.3,22.2h0.5c0.2,0,0.4,0,0.4-0.1c0.1-0.1,0.1-0.2,0.1-0.3c0-0.1,0-0.1-0.1-0.2c0-0.1-0.1-0.1-0.2-0.1
					c-0.1,0-0.2,0-0.4,0h-0.4V22.2z M180,23.5v-2.3h0.8c0.3,0,0.5,0,0.6,0.1c0.1,0,0.2,0.1,0.3,0.2c0.1,0.1,0.1,0.2,0.1,0.3
					c0,0.2-0.1,0.3-0.2,0.4c-0.1,0.1-0.3,0.2-0.5,0.2c0.1,0,0.1,0.1,0.2,0.1c0.1,0.1,0.2,0.2,0.3,0.5l0.3,0.5h-0.5l-0.2-0.4
					c-0.2-0.3-0.3-0.5-0.4-0.5c-0.1-0.1-0.2-0.1-0.3-0.1h-0.2v1H180z M180.9,20.5c-0.3,0-0.6,0.1-0.9,0.2c-0.3,0.2-0.5,0.4-0.7,0.7
					c-0.2,0.3-0.2,0.6-0.2,0.9c0,0.3,0.1,0.6,0.2,0.9c0.2,0.3,0.4,0.5,0.7,0.7c0.3,0.2,0.6,0.2,0.9,0.2c0.3,0,0.6-0.1,0.9-0.2
					c0.3-0.2,0.5-0.4,0.7-0.7c0.2-0.3,0.2-0.6,0.2-0.9c0-0.3-0.1-0.6-0.2-0.9c-0.2-0.3-0.4-0.5-0.7-0.7
					C181.5,20.6,181.2,20.5,180.9,20.5z M180.9,20.1c0.4,0,0.7,0.1,1.1,0.3c0.3,0.2,0.6,0.5,0.8,0.8c0.2,0.3,0.3,0.7,0.3,1.1
					c0,0.4-0.1,0.7-0.3,1.1c-0.2,0.3-0.5,0.6-0.8,0.8c-0.3,0.2-0.7,0.3-1.1,0.3c-0.4,0-0.7-0.1-1.1-0.3c-0.3-0.2-0.6-0.5-0.8-0.8
					c-0.2-0.3-0.3-0.7-0.3-1.1c0-0.4,0.1-0.7,0.3-1.1c0.2-0.3,0.5-0.6,0.8-0.8C180.2,20.2,180.6,20.1,180.9,20.1z"/>
				<path class="st2" d="M46.9,11.7c0,0.6,0,1-0.1,1.4c-0.1,0.4-0.3,0.7-0.5,0.9c-0.2,0.2-0.4,0.3-0.7,0.4c-0.3,0.1-0.6,0.2-1,0.2
					c-0.4,0-0.8,0.1-1.3,0.1l-3,0.1V9h3.1c0.4,0,0.8,0,1.2,0c0.4,0,0.7,0.1,1,0.2c0.3,0.1,0.5,0.2,0.7,0.4c0.2,0.2,0.4,0.5,0.5,0.8
					C46.9,10.8,46.9,11.2,46.9,11.7 M51.1,11.7c0-0.9-0.1-1.7-0.3-2.4c-0.2-0.7-0.5-1.2-1-1.7c-0.5-0.5-1.1-0.9-1.8-1.1
					c-0.7-0.2-1.6-0.3-2.6-0.3h-8.6c-0.1,0-0.2,0-0.3,0.1c-0.1,0.1-0.1,0.2-0.1,0.3v17.2c0,0.1,0,0.2,0.1,0.3
					c0.1,0.1,0.2,0.1,0.3,0.1h3.2c0.1,0,0.2,0,0.3-0.1c0.1-0.1,0.1-0.2,0.1-0.3v-6.4l4.3,0h0.2c0.7,0,1.4,0,2-0.1
					c0.6-0.1,1.2-0.2,1.7-0.4c0.5-0.2,1-0.5,1.3-0.9c0.5-0.5,0.8-1.1,1-1.8C51,13.3,51.1,12.6,51.1,11.7z"/>
				<path class="st2" d="M57.9,23.5l-0.3-1.7c0-0.1,0-0.2-0.1-0.2c0-0.1-0.1-0.1-0.2-0.1c0,0,0,0,0,0c0,0,0,0,0,0
					c-0.1,0-0.2,0-0.3,0c-0.1,0-0.3,0-0.5,0c-0.2,0-0.3,0-0.4-0.1c-0.1-0.1-0.3-0.2-0.4-0.3c-0.1-0.2-0.1-0.4-0.1-0.7V6.3
					c0-0.1,0-0.3-0.1-0.3c-0.1-0.1-0.2-0.1-0.3-0.1H55l-2.8,0.5c-0.2,0-0.3,0.1-0.3,0.2c-0.1,0.1-0.1,0.2-0.1,0.4v14.1
					c0,0.7,0.1,1.3,0.4,1.8c0.3,0.5,0.7,0.9,1.2,1.2c0.5,0.3,1.2,0.4,2,0.4c0.5,0,0.9,0,1.2-0.1c0.3,0,0.6-0.1,0.8-0.2
					c0.2-0.1,0.3-0.1,0.4-0.1c0,0,0,0,0.1,0c0,0,0.1-0.1,0.1-0.1C57.9,23.8,57.9,23.7,57.9,23.5L57.9,23.5z"/>
				<path class="st2" d="M66.2,21.8c-0.1,0-0.3,0.1-0.5,0.1c-0.2,0-0.4,0.1-0.7,0.1c-0.3,0-0.5,0-0.8,0c-0.2,0-0.5,0-0.8,0
					c-0.3,0-0.5-0.1-0.8-0.2c-0.2-0.1-0.4-0.3-0.6-0.6c-0.1-0.2-0.2-0.6-0.2-1c0-0.4,0-0.7,0.1-0.9c0.1-0.2,0.2-0.4,0.4-0.5
					c0.2-0.1,0.3-0.2,0.6-0.3c0.2-0.1,0.4-0.1,0.7-0.1l2.6-0.4V21.8z M69.9,21.6v-6.7c0-0.5,0-0.9-0.1-1.3c-0.1-0.4-0.3-0.7-0.5-1.1
					c-0.2-0.3-0.5-0.6-0.9-0.8c-0.4-0.2-0.9-0.4-1.5-0.5c-0.6-0.1-1.3-0.2-2.2-0.2c-0.7,0-1.3,0-1.9,0.1c-0.6,0.1-1.1,0.1-1.6,0.3
					c-0.5,0.1-0.9,0.2-1.2,0.3c-0.3,0.1-0.6,0.2-0.7,0.2c-0.1,0-0.1,0.1-0.2,0.1C59,12.1,59,12.2,59,12.3c0,0,0,0,0,0.1
					c0,0,0,0,0,0.1l0.4,1.7c0,0.1,0,0.1,0.1,0.2c0,0,0.1,0.1,0.2,0.1c0,0,0.1,0,0.1,0c0,0,0.1,0,0.1,0c0.2,0,0.4-0.1,0.7-0.2
					c0.3-0.1,0.6-0.1,1-0.2c0.4-0.1,0.8-0.1,1.2-0.2c0.4-0.1,0.8-0.1,1.2-0.1c0.4,0,0.7,0,1,0.1c0.3,0,0.5,0.1,0.7,0.2
					c0.2,0.1,0.3,0.2,0.4,0.3c0.1,0.1,0.1,0.3,0.2,0.4c0,0.2,0,0.4,0,0.6v0.7L62,16.5c-0.4,0.1-0.9,0.1-1.3,0.3
					c-0.4,0.1-0.8,0.3-1.2,0.6c-0.4,0.3-0.7,0.6-0.9,1.1c-0.2,0.5-0.3,1.1-0.3,1.9c0,0.8,0.1,1.4,0.3,1.9c0.2,0.5,0.5,0.9,0.9,1.2
					c0.4,0.3,0.8,0.5,1.3,0.7c0.5,0.2,1,0.3,1.6,0.3c0.6,0,1.1,0.1,1.7,0.1c0.7,0,1.3,0,1.9-0.1c0.6-0.1,1.1-0.1,1.5-0.3
					c0.4-0.1,0.8-0.2,1.1-0.3c0.3-0.1,0.5-0.2,0.7-0.4c0.2-0.2,0.3-0.4,0.4-0.7C69.9,22.4,69.9,22,69.9,21.6z"/>
				<path class="st2" d="M83.1,12.9c-0.2-0.5-0.5-0.9-1-1.1c-0.4-0.3-0.9-0.5-1.6-0.6c-0.6-0.1-1.3-0.2-2.1-0.2c-0.4,0-0.8,0-1.2,0
					c-0.4,0-0.8,0.1-1.2,0.1c-0.4,0.1-0.8,0.1-1.2,0.2c-0.4,0.1-0.7,0.1-1,0.2c-0.5,0.1-0.8,0.2-1.1,0.3c-0.3,0.1-0.5,0.3-0.7,0.5
					c-0.1,0.2-0.2,0.4-0.2,0.7v10.6c0,0.1,0,0.2,0.1,0.3c0.1,0.1,0.2,0.1,0.3,0.1h3c0.1,0,0.2,0,0.3-0.1c0.1-0.1,0.1-0.2,0.1-0.3
					v-9.9c0,0,0.1,0,0.2,0c0.1,0,0.3-0.1,0.6-0.1c0.2,0,0.5-0.1,0.8-0.1c0.3,0,0.6,0,0.9,0c0.4,0,0.7,0.1,0.9,0.2
					c0.2,0.1,0.4,0.3,0.5,0.6c0.1,0.3,0.2,0.6,0.2,1.1v8.4c0,0.1,0,0.2,0.1,0.3c0.1,0.1,0.2,0.1,0.3,0.1h3c0.1,0,0.2,0,0.3-0.1
					c0.1-0.1,0.1-0.2,0.1-0.3v-8.9C83.4,14.1,83.3,13.4,83.1,12.9z"/>
				<path class="st2" d="M93.2,17.1h-4.8c0-0.4,0-0.7,0-1c0-0.3,0.1-0.6,0.1-0.9c0.1-0.4,0.2-0.7,0.4-0.9c0.2-0.2,0.4-0.4,0.7-0.5
					c0.3-0.1,0.7-0.2,1.2-0.2c0.4,0,0.7,0,1,0.2c0.3,0.1,0.5,0.3,0.7,0.5c0.2,0.2,0.3,0.6,0.4,1c0,0.3,0.1,0.5,0.1,0.8
					c0,0.3,0,0.6,0,0.9V17.1z M96.9,17.5c0-1.1-0.1-2-0.3-2.8c-0.2-0.8-0.5-1.5-0.9-2c-0.5-0.5-1.1-1-1.9-1.2
					c-0.8-0.3-1.8-0.4-3-0.4c-1.2,0-2.2,0.1-2.9,0.4c-0.8,0.3-1.4,0.7-1.9,1.2c-0.5,0.5-0.8,1.2-1,2.1c-0.2,0.9-0.3,1.9-0.3,3.1
					c0,1.2,0.1,2.3,0.4,3.1c0.3,0.8,0.7,1.5,1.2,2c0.5,0.5,1.2,0.9,2.1,1.1c0.9,0.2,1.9,0.4,3.1,0.3c0.7,0,1.3,0,1.9-0.1
					c0.6-0.1,1.1-0.2,1.5-0.3c0.4-0.1,0.8-0.2,1.1-0.3c0.1,0,0.1-0.1,0.2-0.2c0.1-0.1,0.1-0.1,0.1-0.3c0,0,0,0,0-0.1
					c0,0,0-0.1,0-0.1L96,21.7c0-0.1-0.1-0.2-0.2-0.3c-0.1-0.1-0.1-0.1-0.2-0.1c0,0,0,0,0,0c0,0,0,0,0,0c-0.2,0.1-0.5,0.1-0.8,0.2
					c-0.3,0.1-0.7,0.2-1.1,0.2c-0.4,0.1-0.9,0.1-1.4,0.1c-0.6,0-1.1,0-1.5-0.1c-0.4-0.1-0.8-0.2-1.1-0.4c-0.4-0.2-0.6-0.5-0.8-0.8
					c-0.2-0.3-0.3-0.7-0.3-1.2h7.8c0.2,0,0.4-0.1,0.5-0.2c0.1-0.1,0.1-0.3,0.1-0.4c0-0.1,0-0.2,0-0.4c0-0.1,0-0.3,0-0.4
					C96.9,17.8,96.9,17.6,96.9,17.5z"/>
				<path class="st2" d="M106.1,23.3l-0.3-1.6c0-0.1-0.1-0.1-0.1-0.2c0-0.1-0.1-0.1-0.2-0.1h-0.1c-0.2,0-0.4,0.1-0.7,0.1
					c-0.3,0-0.6,0.1-1,0.1c-0.4,0-0.7-0.1-1-0.2c-0.2-0.1-0.4-0.3-0.5-0.5c-0.1-0.2-0.1-0.5-0.1-0.8V14h3.2c0.1,0,0.2,0,0.3-0.1
					c0.1-0.1,0.1-0.2,0.1-0.3v-1.9c0-0.1,0-0.2-0.1-0.3c-0.1-0.1-0.2-0.1-0.3-0.1h-3.2V7.5c0-0.1,0-0.3-0.1-0.3
					c-0.1-0.1-0.2-0.1-0.3-0.1h-0.1l-2.8,0.5c-0.2,0-0.3,0.1-0.3,0.2c-0.1,0.1-0.1,0.2-0.1,0.4v12.2c0,1,0.2,1.7,0.5,2.3
					c0.3,0.6,0.8,1,1.4,1.3c0.6,0.3,1.4,0.4,2.4,0.4c0.5,0,1,0,1.4-0.1c0.4-0.1,0.8-0.1,1-0.2c0.3-0.1,0.5-0.1,0.6-0.2
					c0.1,0,0.2-0.1,0.2-0.2c0-0.1,0.1-0.2,0.1-0.3V23.3z"/>
				<path class="st2" d="M123.9,23.8V6.2c0-0.1,0-0.2-0.1-0.2c-0.1-0.1-0.1-0.1-0.2-0.1h0l-3.3,0.4c-0.1,0-0.2,0-0.3,0.1
					c-0.1,0.1-0.1,0.1-0.1,0.2v6.8h-8V6.2c0-0.1,0-0.2-0.1-0.2c0-0.1-0.1-0.1-0.2-0.1h0l-3.3,0.4c-0.1,0-0.2,0-0.3,0.1
					c-0.1,0.1-0.1,0.1-0.1,0.2v17.1c0,0.1,0,0.2,0.1,0.3c0.1,0.1,0.2,0.1,0.3,0.1h3.2c0.1,0,0.2,0,0.3-0.1c0.1-0.1,0.1-0.2,0.1-0.3
					v-7.4h8v7.4c0,0.1,0,0.2,0.1,0.3c0.1,0.1,0.2,0.1,0.3,0.1h3.2c0.1,0,0.2,0,0.3-0.1C123.8,24,123.9,23.9,123.9,23.8"/>
				<path class="st2" d="M134.2,17.8c0,0.7,0,1.3-0.1,1.8c0,0.5-0.1,1-0.3,1.3c-0.1,0.3-0.4,0.6-0.7,0.8c-0.3,0.2-0.8,0.3-1.3,0.3
					c-0.6,0-1-0.1-1.3-0.3c-0.3-0.2-0.6-0.4-0.7-0.8c-0.1-0.3-0.2-0.8-0.3-1.3c0-0.5-0.1-1.1,0-1.8c0-0.7,0-1.3,0-1.9
					c0-0.5,0.1-1,0.3-1.3c0.1-0.3,0.4-0.6,0.7-0.8c0.3-0.2,0.8-0.3,1.3-0.3c0.6,0,1,0.1,1.3,0.3c0.3,0.2,0.6,0.4,0.7,0.8
					c0.1,0.3,0.2,0.8,0.3,1.3C134.2,16.4,134.2,17,134.2,17.8 M138,17.8c0-0.8,0-1.5-0.1-2.1c-0.1-0.7-0.2-1.3-0.5-1.8
					c-0.2-0.6-0.6-1-1-1.4c-0.5-0.4-1.1-0.7-1.8-0.9c-0.7-0.2-1.7-0.3-2.7-0.3c-1.1,0-2,0.1-2.7,0.3c-0.7,0.2-1.3,0.5-1.8,0.9
					c-0.5,0.4-0.8,0.9-1,1.4c-0.2,0.6-0.4,1.2-0.5,1.8c-0.1,0.7-0.1,1.4-0.1,2.1c0,0.7,0,1.5,0.1,2.1c0.1,0.7,0.2,1.3,0.5,1.8
					c0.2,0.6,0.6,1,1,1.4c0.5,0.4,1.1,0.7,1.8,0.9c0.7,0.2,1.7,0.3,2.7,0.3c1.1,0,2-0.1,2.7-0.3c0.7-0.2,1.3-0.5,1.8-0.9
					c0.5-0.4,0.8-0.9,1-1.4c0.2-0.6,0.4-1.2,0.5-1.8C138,19.2,138,18.5,138,17.8z"/>
				<path class="st2" d="M149.1,20.2c0-0.8-0.1-1.4-0.3-1.9c-0.2-0.5-0.5-0.9-0.9-1.1c-0.4-0.3-0.8-0.5-1.2-0.6
					c-0.4-0.1-0.9-0.2-1.4-0.3c-0.3-0.1-0.6-0.1-0.9-0.2c-0.3-0.1-0.5-0.1-0.8-0.2c-0.2-0.1-0.4-0.2-0.5-0.4
					c-0.1-0.2-0.2-0.4-0.2-0.7c0-0.3,0.1-0.5,0.2-0.6c0.1-0.2,0.3-0.3,0.5-0.4c0.2-0.1,0.4-0.1,0.7-0.2c0.2,0,0.5,0,0.7,0
					c0.3,0,0.6,0,1,0c0.3,0,0.6,0.1,0.9,0.1c0.3,0,0.5,0.1,0.7,0.1c0.2,0,0.3,0.1,0.4,0.1c0,0,0,0,0,0c0,0,0,0,0,0
					c0.1,0,0.2,0,0.2-0.1c0.1,0,0.1-0.1,0.1-0.2l0.3-1.6V12c0-0.1,0-0.1-0.1-0.2c0-0.1-0.1-0.1-0.2-0.1c-0.2-0.1-0.4-0.1-0.8-0.2
					c-0.4-0.1-0.8-0.2-1.4-0.2c-0.5-0.1-1.1-0.1-1.8-0.1c-0.4,0-0.9,0-1.4,0.1c-0.5,0.1-1,0.2-1.4,0.3c-0.5,0.2-0.9,0.4-1.3,0.7
					c-0.4,0.3-0.7,0.7-0.9,1.2c-0.2,0.5-0.3,1.1-0.3,1.8c0,0.7,0.1,1.2,0.3,1.7c0.2,0.5,0.4,0.8,0.7,1.1c0.3,0.3,0.6,0.5,1,0.6
					c0.4,0.2,0.7,0.3,1.1,0.4c0.4,0.1,0.7,0.1,1,0.2c0.3,0.1,0.6,0.1,0.8,0.2c0.3,0.1,0.5,0.1,0.6,0.2c0.2,0.1,0.3,0.2,0.4,0.4
					c0.1,0.2,0.1,0.4,0.1,0.7c0,0.3-0.1,0.6-0.3,0.8c-0.2,0.2-0.4,0.3-0.7,0.4c-0.3,0.1-0.6,0.1-1,0.1c-0.4,0-0.8,0-1.1-0.1
					c-0.4,0-0.7-0.1-1.1-0.2c-0.3-0.1-0.6-0.1-0.9-0.2c-0.2-0.1-0.4-0.1-0.5-0.1c0,0,0,0-0.1,0c0,0,0,0-0.1,0c-0.1,0-0.1,0-0.2,0.1
					c0,0-0.1,0.1-0.1,0.2l-0.3,1.6v0.1c0,0.1,0,0.2,0.1,0.3c0.1,0,0.1,0.1,0.2,0.1c0.1,0,0.3,0.1,0.6,0.2c0.3,0.1,0.6,0.2,1,0.2
					c0.4,0.1,0.9,0.1,1.3,0.2c0.5,0.1,1,0.1,1.5,0.1c0.7,0,1.4-0.1,2.1-0.2c0.6-0.1,1.2-0.4,1.7-0.7c0.5-0.3,0.9-0.7,1.1-1.3
					C149,21.7,149.1,21,149.1,20.2"/>
				<path class="st2" d="M158.4,23.3l-0.3-1.6c0-0.1-0.1-0.1-0.1-0.2c0-0.1-0.1-0.1-0.2-0.1h-0.1c-0.2,0-0.4,0.1-0.7,0.1
					c-0.3,0-0.6,0.1-1,0.1c-0.4,0-0.7-0.1-1-0.2c-0.2-0.1-0.4-0.3-0.5-0.5c-0.1-0.2-0.1-0.5-0.1-0.8V14h3.2c0.1,0,0.2,0,0.3-0.1
					c0.1-0.1,0.1-0.2,0.1-0.3v-1.9c0-0.1,0-0.2-0.1-0.3c-0.1-0.1-0.2-0.1-0.3-0.1h-3.2V7.5c0-0.1,0-0.3-0.1-0.3
					c-0.1-0.1-0.2-0.1-0.3-0.1h-0.1l-2.8,0.5c-0.2,0-0.3,0.1-0.3,0.2c-0.1,0.1-0.1,0.2-0.1,0.4v12.2c0,1,0.2,1.7,0.5,2.3
					c0.3,0.6,0.8,1,1.4,1.3c0.6,0.3,1.4,0.4,2.4,0.4c0.5,0,1,0,1.4-0.1c0.4-0.1,0.8-0.1,1-0.2c0.3-0.1,0.5-0.1,0.6-0.2
					c0.1,0,0.2-0.1,0.2-0.2c0-0.1,0.1-0.2,0.1-0.3V23.3z"/>
				<path class="st2" d="M167.4,17.1h-4.8c0-0.4,0-0.7,0-1c0-0.3,0.1-0.6,0.1-0.9c0.1-0.4,0.2-0.7,0.4-0.9c0.2-0.2,0.4-0.4,0.7-0.5
					c0.3-0.1,0.7-0.2,1.2-0.2c0.4,0,0.7,0,1,0.2c0.3,0.1,0.5,0.3,0.7,0.5c0.2,0.2,0.3,0.6,0.4,1c0,0.3,0.1,0.5,0.1,0.8
					c0,0.3,0,0.6,0,0.9V17.1z M171.1,17.5c0-1.1-0.1-2-0.3-2.8c-0.2-0.8-0.5-1.5-0.9-2c-0.5-0.5-1.1-1-1.9-1.2
					c-0.8-0.3-1.8-0.4-3-0.4c-1.2,0-2.2,0.1-2.9,0.4c-0.8,0.3-1.4,0.7-1.9,1.2c-0.5,0.5-0.8,1.2-1,2.1c-0.2,0.9-0.3,1.9-0.3,3.1
					c0,1.2,0.1,2.3,0.4,3.1c0.3,0.8,0.7,1.5,1.2,2c0.5,0.5,1.2,0.9,2.1,1.1c0.9,0.2,1.9,0.4,3.1,0.3c0.7,0,1.3,0,1.9-0.1
					c0.6-0.1,1.1-0.2,1.5-0.3c0.4-0.1,0.8-0.2,1.1-0.3c0.1,0,0.1-0.1,0.2-0.2c0.1-0.1,0.1-0.1,0.1-0.3c0,0,0,0,0-0.1
					c0,0,0-0.1,0-0.1l-0.3-1.3c0-0.1-0.1-0.2-0.2-0.3c-0.1-0.1-0.1-0.1-0.2-0.1c0,0,0,0,0,0c0,0,0,0,0,0c-0.2,0.1-0.5,0.1-0.8,0.2
					c-0.3,0.1-0.7,0.2-1.1,0.2c-0.4,0.1-0.9,0.1-1.4,0.1c-0.6,0-1.1,0-1.5-0.1c-0.4-0.1-0.8-0.2-1.1-0.4c-0.4-0.2-0.6-0.5-0.8-0.8
					c-0.2-0.3-0.3-0.7-0.3-1.2h7.8c0.2,0,0.4-0.1,0.5-0.2c0.1-0.1,0.1-0.3,0.1-0.4c0-0.1,0-0.2,0-0.4c0-0.1,0-0.3,0-0.4
					C171.1,17.8,171.1,17.6,171.1,17.5z"/>
				<path class="st2" d="M179.8,13.4v-1.8c0-0.1,0-0.2-0.1-0.3c0-0.1-0.1-0.1-0.1-0.1c-0.1,0-0.1-0.1-0.2-0.1c-0.1,0-0.2,0-0.3,0
					h-0.2c-0.4,0-0.8,0-1.2,0.1c-0.4,0-0.8,0.1-1.1,0.1c-0.4,0-0.7,0.1-1.1,0.1c-0.4,0.1-0.7,0.1-1,0.2c-0.3,0.1-0.6,0.1-0.9,0.2
					c-0.3,0.1-0.5,0.2-0.6,0.3c-0.2,0.1-0.3,0.2-0.4,0.4c-0.1,0.1-0.1,0.3-0.1,0.6v10.6c0,0.1,0,0.2,0.1,0.3
					c0.1,0.1,0.2,0.1,0.3,0.1h3c0.1,0,0.2,0,0.3-0.1c0.1-0.1,0.1-0.2,0.1-0.3v-9.6c0.1,0,0.4-0.1,0.7-0.1c0.3,0,0.7-0.1,1.1-0.1
					c0.4,0,0.9,0,1.3,0c0.1,0,0.2,0,0.3-0.1c0.1,0,0.1-0.1,0.1-0.2C179.8,13.5,179.8,13.4,179.8,13.4"/>
			</g>
			<g>
				<g>
					<path class="st2" d="M19.8,1.9c-0.6-0.1-1.3-0.2-2-0.2c-6.1,0-11.2,4.4-12.3,10.2c-0.1,0.4-0.2,1-0.2,1.2
						c0,0.4-0.1,0.8-0.1,1.2c0,4.2,2.1,7.9,5.3,10.2c0.7-0.1,1.5-0.3,2.2-0.5c-0.2-0.3-0.3-0.5-0.3-0.7c0-0.1,0-0.3,0.2-0.5l0.1-0.1
						h0.1c0.2,0,0.5,0.1,0.9,0.4c0.2,0.1,0.3,0.2,0.4,0.4c0.3-0.1,0.5-0.2,0.8-0.3c-0.5-0.4-0.8-0.7-0.8-1c0-0.2,0.1-0.5,0.2-0.9
						c0.1-0.5,0.3-0.7,0.5-0.8c0.4-0.1,0.8-0.2,1.2-0.3c0.3-0.1,0.6-0.3,0.8-0.7c0.1-0.3,0.3-0.6,0.5-0.9c0.2-0.4,0.7-0.6,1.3-0.6
						c0.1,0,0.2,0,0.4,0c0.1,0,0.2,0,0.3,0c0.3,0,0.6-0.1,1.1-0.3c0.5-0.2,0.9-0.3,1.2-0.3c0.6,0,1.1,0,1.5,0.1
						c0.2-0.1,0.3-0.3,0.5-0.4c-0.2-0.1-0.4-0.3-0.6-0.7c-0.1-0.2-0.3-0.5-0.5-1.1c-0.1-0.1-0.2-0.3-0.6-0.9
						c-0.3-0.4-0.4-0.8-0.4-1.4c0-0.6,0.2-1.1,0.6-1.6c0.4-0.6,0.9-0.9,1.5-0.9c0.9,0,1.8,0.4,2.4,1.1c0.4,0.4,0.7,0.9,0.8,1.4
						c1.1-1.7,1.8-3.4,2-4.9c0,0,0-0.1,0-0.1c-1.6-2.9-4.3-5.1-7.5-6L19.8,1.9z M26.6,10.4c0-0.2,0-0.4,0.1-0.5l0.1-0.1h0.2
						c0,0,0,0,0.1,0c0.2,0,0.3,0.1,0.5,0.2c0.2,0.2,0.2,0.3,0.3,0.4c0.1,0.3,0.1,0.5,0,0.6c-0.1,0.1-0.1,0.1-0.2,0.1
						c-0.2,0.1-0.3,0.1-0.4,0.1c-0.1,0-0.6-0.1-0.6-0.7V10.4z M18.6,14.1c0.3-0.2,0.6-0.2,0.9-0.2c1.1,0,1.2,0.7,1.2,1
						c0,0.3-0.1,0.5-0.4,0.7c-0.3,0.2-0.5,0.3-0.8,0.4c-0.1,0-0.1,0-0.2,0c-0.8,0-1.1-0.7-1.1-1C18.2,14.6,18.3,14.3,18.6,14.1z
						 M16.1,17.9c0.5,0,0.7,0.3,0.7,0.8c0,0.7-0.4,0.7-0.6,0.7c-0.2,0-0.4-0.1-0.6-0.2c-0.2-0.2-0.3-0.4-0.3-0.6
						c0-0.1,0-0.3,0.3-0.5C15.7,17.9,15.9,17.9,16.1,17.9z M15.5,17.1l0,0.2c0,0.6-0.1,1-0.4,1.3c-0.3,0.3-0.7,0.4-1.2,0.4
						c-0.5,0-0.8-0.3-0.8-0.9c0-1,0.7-1.7,1.7-1.7C15.3,16.5,15.5,16.8,15.5,17.1z M12.8,12.3c0.3,0,0.6,0.1,0.8,0.4
						c0.2,0.3,0.3,0.6,0.3,0.9c0,0.2-0.1,0.7-0.9,0.7H13c-0.6,0-0.9-0.4-0.9-1C12.1,12.5,12.6,12.3,12.8,12.3z M9.4,14
						c0.6,0,1.1,0.2,1.3,0.5c0.2,0.3,0.3,0.6,0.5,0.9c0.3,0.3,0.6,0.6,0.8,0.7l0.1,0.1c0.3,0.4,0.5,0.9,0.6,1.5l0.2,1.5
						c0,0,0.1,0.2,0.3,0.6c0.2,0.3,0.3,0.6,0.3,1c0,0.9-0.5,1.4-1.4,1.4c-0.8,0-1.6-0.5-2.3-1.6C9.5,20.4,9.2,20.1,9,20l0,0
						c-0.4-0.4-0.7-1-1-1.8c-0.3-0.8-0.5-1.4-0.5-2c0-0.5,0.2-1,0.5-1.4C8.3,14.2,8.8,14,9.4,14z M7.3,11.5l0.3-0.3l0.1,0.4
						c0,0.2,0.1,0.3,0.1,0.5c0,0.6-0.3,0.7-0.5,0.7c-0.3,0-0.6-0.2-0.6-0.6C6.8,12,7,11.7,7.3,11.5z M6.5,17.8h0.8l0.1,0.5
						c0,0.2,0,0.3-0.1,0.4l-0.1,0.2l-0.2-0.1c-0.1-0.1-0.4-0.2-0.4-0.6V17.8z"/>
					<path class="st2" d="M25.3,20.8c-0.1,0.3-0.1,0.4-0.1,0.5c0,0,0,0.1,0.1,0.3c0,0.2,0.1,0.3,0.1,0.4c0,0.6-0.4,1.2-1.1,1.6
						c-0.5,0.3-1.1,0.6-1.8,0.7c-0.1,0-0.3,0.1-1.1,0.7c-0.5,0.5-1.2,0.7-2,0.7c-0.5,0-0.8-0.1-1.1-0.2c-0.1,0-0.1-0.1-0.2-0.1
						c-0.5,0.3-1,0.5-1.5,0.7c-0.1,0.1-0.2,0.2-0.3,0.2c0,0,0,0,0,0c-0.3,0.1-0.5,0.2-0.8,0.3c0.7,0.1,1.5,0.2,2.2,0.2
						c6.9,0,12.5-5.6,12.6-12.5c-1.2,2-2.9,4-4.9,5.9c0,0,0,0,0,0C25.5,20.4,25.4,20.6,25.3,20.8z M27.4,19.4l0.4-0.3V20
						c0,0.3-0.4,0.8-0.7,0.8l-0.2,0l-0.1-0.1c-0.1-0.1-0.2-0.3-0.2-0.4C26.7,20,26.9,19.8,27.4,19.4z"/>
					<path class="st2" d="M24.4,14.6c0.2,0,0.9-0.5,0.8-1.2c-0.1-0.7-0.8-2.2-2-1.5c-0.4,0.2-0.6,1-0.1,1.4c0.5,0.4,0.7,0.7,0.7,1
						C23.8,14.6,24.1,14.6,24.4,14.6z"/>
					<path class="st2" d="M21.4,19.2c-0.5-0.2-1-0.3-1.4-0.3c-0.5,0-0.9,0.2-1.1,0.5c-0.2,0.3-0.4,0.6-0.6,0.9
						c-0.2,0.4-0.4,0.7-0.6,0.8c-0.4,0.1-0.7,0.6-0.8,1.1c1.3-0.7,2.5-1.5,3.7-2.4C20.9,19.6,21.1,19.4,21.4,19.2z"/>
					<path class="st2" d="M11.1,20.3c0.5,0.2,1.2-0.5,0.8-1.2c-0.3-0.7-1.2-1.4-1.2-2.3c0-0.5-0.6-1.4-1.1-1.1c-0.4,0.3-0.7,1-0.3,2
						C9.6,18.7,10.6,20.1,11.1,20.3z"/>
				</g>
				<path class="st2" d="M31.1,3.3c-2-2.6-6.2-3-11-1.5c0.7,0.1,1.3,0.2,1.8,0.4c2.9-0.4,5.3,0.2,6.6,1.9c1,1.3,1.2,3.1,0.7,5
					c-0.6,2.4-2.1,5-4.3,7.5c-1.1,1.2-2.4,2.4-3.8,3.5c-3.4,2.6-7,4.2-10.2,4.8c-0.4,0.1-0.7,0.1-1.1,0.1c-2.7,0.3-4.9-0.4-6.1-2
					C2,20.7,2.7,17.2,5,13.5c0-0.4,0.1-0.8,0.1-1.2c-3.8,4.9-5.2,10-2.9,13.1c1.6,2.1,4.7,2.8,8.3,2.2c1.3-0.2,2.6-0.6,4-1.1
					c2.6-1,5.3-2.5,7.9-4.5c3.4-2.6,6.1-5.7,7.8-8.7c0.8-1.3,1.3-2.6,1.6-3.9C32.6,7,32.3,4.8,31.1,3.3z"/>
			</g>
		</g>
	</g>
	<text transform="matrix(1 0 0 1 132.2402 42.6008)" class="st3 st4 st5">Partenaire</text>
</g>
</svg>
